<svg width="200" height="200" viewBox="0 0 200 200" fill="none" xmlns="http://www.w3.org/2000/svg">
<path d="M194.558 131.5V168.5H155.558C146.058 168.5 124.558 151 123.058 98C121.558 45 149.558 23 155.058 23H194.558V58.5H158.558C151.558 58.5 141.558 81.5 143.058 100.5C144.558 119.5 151.058 131.5 161.058 131.5H194.558Z" fill="#8B2727"/>
<path d="M109 63H127C127 63 123 85 123.5 98.5C124 112 127 131 127 131C127 131 111 132 108 129.5C105 127 97 111.5 97 98.5C97 85.5 105 63 109 63Z" fill="#1C234E"/>
<path d="M24.5 170H1C1 170 15.4333 118.88 29.5 78.5C45 34.0055 44.5 23 53 23H101.5L99.5 28H54.8045L56.5 32.6979H92.5L91 36.5H57.8722L60.7594 44.5L62.5 41.5H86.5V44.5H60.7594L62.9248 50.5H83V54.5L64.7293 55.5L66.7143 61H79.5V63.5L67.9774 64.5L69.6015 69H78.5L77 72.5L71 72.875L73.0301 78.5H77V82.5H74.4737C74.4737 82.5 76.5 88.5 77 89.5C77.5 90.5 77.5455 118.5 83 138.5C88.4545 158.5 106.5 170 104 170H28L39.5 134.5H71C71 134.5 54.8045 71 53 75.5C51.1955 80 24.5 170 24.5 170Z" fill="#1C234E"/>
</svg>
